<svg id="89cb4513-ffa6-4cd0-a48a-07c9158bc4ab" data-name="Ebene 1" xmlns="http://www.w3.org/2000/svg" viewBox="0 0 32 32"><defs><style>.afca9242-0909-4339-bd2f-33f8be7ee9cb{fill:#fead00;}</style></defs><title>icon-battery-02</title><path class="afca9242-0909-4339-bd2f-33f8be7ee9cb" d="M20.23,17H11.77a0.91,0.91,0,0,0-.92.91v8.18a0.91,0.91,0,0,0,.92.91h8.47a0.91,0.91,0,0,0,.92-0.91V17.89A0.91,0.91,0,0,0,20.23,17Z"/><path class="afca9242-0909-4339-bd2f-33f8be7ee9cb" d="M20.84,5H18.49V4.15a1,1,0,0,0-1-1H14.56a1,1,0,0,0-1,1V5H11.16A2.16,2.16,0,0,0,9,7.12V26.73a2.16,2.16,0,0,0,2.16,2.16h9.68A2.16,2.16,0,0,0,23,26.73V7.12A2.16,2.16,0,0,0,20.84,5Zm1,21.78a1,1,0,0,1-1,1H11.16a1,1,0,0,1-1-1V7.12a1,1,0,0,1,1-1h9.68a1,1,0,0,1,1,1V26.73Z"/></svg>