<svg id="2bac1a6d-4234-45ba-b807-49468a042123" data-name="Ebene 1" xmlns="http://www.w3.org/2000/svg" viewBox="0 0 32 32"><defs><style>.f6477f72-3d1f-4573-87b7-8b9ec4f296be{fill:#fead00;}</style></defs><title>icon-battery-charge-04</title><path class="f6477f72-3d1f-4573-87b7-8b9ec4f296be" d="M20.84,5H18.49V4.15a1.05,1.05,0,0,0-1-1H14.56a1,1,0,0,0-1,1V5H11.16A2.16,2.16,0,0,0,9,7.12V26.74a2.16,2.16,0,0,0,2.16,2.16h9.68A2.16,2.16,0,0,0,23,26.74V7.12A2.16,2.16,0,0,0,20.84,5Zm1,21.78a1,1,0,0,1-1,1H11.16a1.05,1.05,0,0,1-1.05-1V7.12a1,1,0,0,1,1.05-1h9.68a1,1,0,0,1,1,1V26.74Z"/><path class="f6477f72-3d1f-4573-87b7-8b9ec4f296be" d="M20.23,6.87H11.77a0.92,0.92,0,0,0-.92.92V26.06a0.92,0.92,0,0,0,.92.92h8.47a0.92,0.92,0,0,0,.92-0.92V7.79A0.92,0.92,0,0,0,20.23,6.87ZM14.47,25.3l1.3-7.1-2.62-1,4.39-8.6-1.3,7.1,2.63,1Z"/></svg>