<svg id="373d2c5e-0377-45b0-9294-fbdf7531188a" data-name="Ebene 1" xmlns="http://www.w3.org/2000/svg" viewBox="0 0 32 32"><defs><style>.e5efd1e7-8481-490e-9ffe-d74fc289cd7a{fill:#fead00;}</style></defs><title>icon-battery-03</title><path class="e5efd1e7-8481-490e-9ffe-d74fc289cd7a" d="M20.23,12H11.77a0.92,0.92,0,0,0-.92.91V26.06a0.92,0.92,0,0,0,.92.91h8.47a0.92,0.92,0,0,0,.92-0.91V12.89A0.92,0.92,0,0,0,20.23,12Z"/><path class="e5efd1e7-8481-490e-9ffe-d74fc289cd7a" d="M20.84,5H18.49V4.15a1,1,0,0,0-1-1H14.56a1,1,0,0,0-1,1V5H11.16A2.16,2.16,0,0,0,9,7.12V26.73a2.16,2.16,0,0,0,2.16,2.16h9.68A2.16,2.16,0,0,0,23,26.73V7.12A2.16,2.16,0,0,0,20.84,5Zm1,21.78a1,1,0,0,1-1,1H11.16a1,1,0,0,1-1-1V7.12a1,1,0,0,1,1-1h9.68a1,1,0,0,1,1,1V26.73Z"/></svg>