<?xml version="1.0" encoding="UTF-8"?>
<!-- Generator: Adobe Illustrator 19.2.1, SVG Export Plug-In . SVG Version: 6.00 Build 0)  -->
<svg version="1.1" id="_x38_797379b-c130-49f1-b29e-208410bb0913" xmlns="http://www.w3.org/2000/svg" xmlns:xlink="http://www.w3.org/1999/xlink" x="0px" y="0px" viewBox="0 0 32 32" style="enable-background:new 0 0 32 32;" xml:space="preserve">
<style type="text/css">
	.st0{fill:#fead00;}
</style>
<title>icon-battery-01</title>
<path class="st0" d="M20.2,22h-8.5c-0.5,0-0.9,0.4-0.9,0.9c0,0,0,0,0,0v3.2c0,0.5,0.4,0.9,0.9,0.9c0,0,0,0,0,0h8.5  c0.5,0,0.9-0.4,0.9-0.9c0,0,0,0,0,0v-3.2C21.1,22.4,20.7,22,20.2,22C20.2,22,20.2,22,20.2,22z"/>
<path class="st0" d="M20.8,5h-2.4V4.2c0-0.6-0.4-1-1-1h-2.9c-0.6,0-1,0.4-1,1V5h-2.4C10,5,9,5.9,9,7.1v19.6c0,1.2,1,2.2,2.2,2.2h9.7  c1.2,0,2.2-1,2.2-2.2V7.1C23,5.9,22,5,20.8,5z M21.8,26.8c0,0.6-0.4,1-1,1h-9.7c-0.6,0-1-0.4-1-1V7.1c0-0.6,0.4-1,1-1h9.7  c0.6,0,1,0.4,1,1V26.8L21.8,26.8z"/>
</svg>