<?xml version="1.0" encoding="UTF-8"?>
<!-- Generator: Adobe Illustrator 19.2.1, SVG Export Plug-In . SVG Version: 6.00 Build 0)  -->
<svg version="1.1" id="_x38_da7d0df-3ffa-4158-a7b9-756f27a77718" xmlns="http://www.w3.org/2000/svg" xmlns:xlink="http://www.w3.org/1999/xlink" x="0px" y="0px" viewBox="0 0 32 32" style="enable-background:new 0 0 32 32;" xml:space="preserve">
<style type="text/css">
	.st0{fill:#fead00;}
</style>
<title>icon-battery-charge-03</title>
<g>
	<path class="st0" d="M20.8,5h-2.4V4.2c0-0.6-0.4-1-1-1h-2.9c-0.6,0-1,0.4-1,1V5h-2.4C10,5,9,5.9,9,7.1v19.6c0,1.2,1,2.2,2.2,2.2   h9.7c1.2,0,2.2-1,2.2-2.2V7.1C23,5.9,22,5,20.8,5z M21.8,26.7L21.8,26.7c0,0.6-0.4,1-1,1h-9.7c-0.6,0-1-0.4-1-1V7.1   c0-0.6,0.4-1,1-1h9.7c0.6,0,1,0.4,1,1V26.7z"/>
	<path class="st0" d="M20.2,12h-3.5l-0.5,2.8l2.6,1.1l-4.4,9.3l1.3-7.7l-2.6-1.1l2.1-4.4h-3.5c-0.5,0-0.9,0.5-0.9,1v13   c0,0.5,0.4,1,0.9,1h8.5c0.5,0,0.9-0.5,0.9-1V13C21.2,12.5,20.8,12,20.2,12z"/>
	<polygon class="st0" points="17.5,7.5 15.2,12 16.7,12  "/>
</g>
</svg>