<?xml version="1.0" encoding="UTF-8" standalone="no"?>
<!-- Generator: Adobe Illustrator 19.2.1, SVG Export Plug-In . SVG Version: 6.00 Build 0)  -->
<svg xmlns:dc="http://purl.org/dc/elements/1.1/" xmlns:cc="http://creativecommons.org/ns#" xmlns:rdf="http://www.w3.org/1999/02/22-rdf-syntax-ns#" xmlns:svg="http://www.w3.org/2000/svg" xmlns="http://www.w3.org/2000/svg" xmlns:sodipodi="http://sodipodi.sourceforge.net/DTD/sodipodi-0.dtd" xmlns:inkscape="http://www.inkscape.org/namespaces/inkscape" version="1.1" id="_x38_797379b-c130-49f1-b29e-208410bb0913" x="0px" y="0px" viewBox="0 0 32 32" style="enable-background:new 0 0 32 32;" xml:space="preserve" inkscape:version="0.91 r13725" sodipodi:docname="battery_0.svg"><metadata id="metadata15"><rdf:RDF><cc:Work rdf:about=""><dc:format>image/svg+xml</dc:format><dc:type rdf:resource="http://purl.org/dc/dcmitype/StillImage"/><dc:title>icon-battery-01</dc:title></cc:Work></rdf:RDF></metadata><defs id="defs13"/><sodipodi:namedview pagecolor="#ffffff" bordercolor="#666666" borderopacity="1" objecttolerance="10" gridtolerance="10" guidetolerance="10" inkscape:pageopacity="0" inkscape:pageshadow="2" inkscape:window-width="640" inkscape:window-height="480" id="namedview11" showgrid="false" inkscape:zoom="7.375" inkscape:cx="16" inkscape:cy="16" inkscape:window-x="0" inkscape:window-y="0" inkscape:window-maximized="0" inkscape:current-layer="_x38_797379b-c130-49f1-b29e-208410bb0913"/><style type="text/css" id="style3">
	.st0{fill:#fead00;}
</style><title id="title5">icon-battery-01</title><path class="st0" d="M20.8,5h-2.4V4.2c0-0.6-0.4-1-1-1h-2.9c-0.6,0-1,0.4-1,1V5h-2.4C10,5,9,5.9,9,7.1v19.6c0,1.2,1,2.2,2.2,2.2h9.7  c1.2,0,2.2-1,2.2-2.2V7.1C23,5.9,22,5,20.8,5z M21.8,26.8c0,0.6-0.4,1-1,1h-9.7c-0.6,0-1-0.4-1-1V7.1c0-0.6,0.4-1,1-1h9.7  c0.6,0,1,0.4,1,1V26.8L21.8,26.8z" id="path9"/></svg>