<?xml version="1.0" encoding="UTF-8"?>
<!-- Generator: Adobe Illustrator 19.2.1, SVG Export Plug-In . SVG Version: 6.00 Build 0)  -->
<svg version="1.1" id="af249a81-ddfa-4555-b72c-1e476c7710bc" xmlns="http://www.w3.org/2000/svg" xmlns:xlink="http://www.w3.org/1999/xlink" x="0px" y="0px" viewBox="0 0 32 32" style="enable-background:new 0 0 32 32;" xml:space="preserve">
<style type="text/css">
	.st0{fill:#fead00;}
</style>
<title>icon-battery-charge-02</title>
<g>
	<path class="st0" d="M20.8,5h-2.4V4.2c0-0.6-0.4-1-0.9-1c0,0,0,0-0.1,0h-2.9c-0.6,0-1,0.4-1,1c0,0,0,0,0,0.1V5h-2.4   C10,5,9,5.9,9,7.1v19.6c0,1.2,1,2.2,2.2,2.2h9.7c1.2,0,2.2-1,2.2-2.2V7.1C23,5.9,22,5,20.8,5z M21.8,26.7L21.8,26.7   c0,0.6-0.5,1-1,1h-9.7c-0.6,0-1-0.4-1-1V7.1c0-0.6,0.4-1,1-1h9.7c0.6,0,1,0.4,1,1V26.7z"/>
	<path class="st0" d="M20.2,17h-3.1l-2.7,7.6l1-7.6h-3.7c-0.6,0.1-1,0.7-0.9,1.3v7.4c-0.1,0.6,0.3,1.2,0.9,1.3h8.5   c0.6-0.1,1-0.7,0.9-1.3v-7.4C21.2,17.7,20.8,17.1,20.2,17z"/>
	<polygon class="st0" points="15.4,17 17.2,17 18.4,14.3 16.3,13.4 17.4,7.6 13.8,14.7 15.7,15.5  "/>
</g>
</svg>