<?xml version="1.0" encoding="utf-8"?>
<!-- Generator: Adobe Illustrator 19.2.1, SVG Export Plug-In . SVG Version: 6.00 Build 0)  -->
<svg version="1.1" id="_x38_866d4a9-b15c-4171-860d-cd341e120913"
	xmlns="http://www.w3.org/2000/svg"
	xmlns:xlink="http://www.w3.org/1999/xlink" x="0px" y="0px" viewBox="0 0 32 32" style="enable-background:new 0 0 32 32;" xml:space="preserve">
	<style type="text/css">
	.st0{fill:#7F8488;}
	</style>
	<title>icon-sw-4quadranten-eigenverbrauch</title>
	<path class="st0" d="M19.5,22.6c0,0.2-0.2,0.4-0.4,0.4c0,0,0,0,0,0h-6.2c-0.2,0-0.4-0.1-0.4-0.3c0,0,0,0,0,0v-0.3
	c0-0.2,0.2-0.3,0.4-0.3h6.2c0.2,0,0.4,0.1,0.4,0.3c0,0,0,0,0,0L19.5,22.6L19.5,22.6z"/>
	<path class="st0" d="M19.5,24.6c0,0.2-0.2,0.4-0.4,0.4c0,0,0,0,0,0h-6.2c-0.2,0-0.4-0.1-0.4-0.3c0,0,0,0,0,0v-0.3
	c0-0.2,0.2-0.3,0.4-0.3h6.2c0.2,0,0.4,0.1,0.4,0.3c0,0,0,0,0,0L19.5,24.6L19.5,24.6z"/>
	<path class="st0" d="M17.5,26.6c0,0.2-0.2,0.4-0.4,0.4c0,0,0,0,0,0h-2.3c-0.2,0-0.4-0.2-0.4-0.3c0,0,0,0,0,0v-0.3
	c0-0.2,0.2-0.3,0.4-0.3h2.3c0.2,0,0.4,0.2,0.4,0.3c0,0,0,0,0,0L17.5,26.6L17.5,26.6z"/>
	<path class="st0" d="M16,4c-4.1,0-7.4,3.3-7.4,7.4c0,0,0,0,0,0c0,1.6,0.6,3.2,1.6,4.4c1.3,1.4,2.1,3.3,2.1,5.2h7.2
	c0.1-1.9,0.8-3.8,2.1-5.2c1-1.2,1.6-2.8,1.6-4.4C23.4,7.3,20.1,4,16,4C16,4,16,4,16,4z M21.5,12c-1.2,0-1.2-1.5-2.9-3.1
	s-3.2-2-3.2-2.9s3.1-0.6,4.7,1.1S22.3,12,21.5,12z"/>
</svg>
