<?xml version="1.0" encoding="utf-8"?>
<!-- Generator: Adobe Illustrator 19.2.1, SVG Export Plug-In . SVG Version: 6.00 Build 0)  -->
<svg version="1.1" id="_x38_4c4031f-7dd2-4052-92b1-3553c6d295b4"
	 xmlns="http://www.w3.org/2000/svg" xmlns:xlink="http://www.w3.org/1999/xlink" x="0px" y="0px" viewBox="0 0 32 32"
	 style="enable-background:new 0 0 32 32;" xml:space="preserve">
<style type="text/css">
	.st0{fill:#7F8488;}
</style>
<title>icon-sw-4quadranten-netz</title>
<path class="st0" d="M17.7,12.7L17.6,10h3.6l0,0l0,0H23v1h1v-1V7.3l-6.4-1.7l0-1.6c0-0.5-0.5-1-1-1h-1c-0.5,0-1,0.4-1,1l0,1.6L8,7.3
	V10v1h1v-1h1.7l0,0l0,0h3.6l-0.1,2.7L6,14.8V18v1h1v-1h7.2L14,28c0,0.5,0.4,1,1,1h2c0.5,0,1-0.4,1-1l-0.2-10H25v1h1v-1v-3.2
	L17.7,12.7z M9,17l-1.7-1.5l2.8-0.7l-1,2.2H9z M10.6,15l1.5,2H9.7L10.6,15z M10.9,14.6l3.4-0.9l-1.9,2.8L10.9,14.6z M10.5,9l-1-1.1
	l1.6-0.4L10.5,9L10.5,9z M13.8,6.8l-1.1,1.8L12,7.3L13.8,6.8z M9,9V8.2L9.8,9H9z M11.6,7.6L12.4,9h-1.3L11.6,7.6z M13.1,9l1.3-2.2
	l0,2.2H13.1z M7,15.9L8.2,17H7V15.9z M12.7,17l1.6-2.4l0,2.4H12.7z M22.9,17l-1-2.2l2.8,0.7L23,17H22.9z M21.4,15l0.9,2H20L21.4,15z
	 M19.7,16.6l-1.9-2.8l3.4,0.9L19.7,16.6z M21.5,9l-0.5-1.5l1.6,0.4L21.5,9L21.5,9z M17.6,6.8L18.9,9h-1.3L17.6,6.8z M18.2,6.8
	L20,7.3l-0.8,1.4L18.2,6.8z M19.6,9l0.8-1.4L20.9,9H19.6z M22.2,9L23,8.2V9H22.2z M17.7,14.6l1.6,2.4h-1.6L17.7,14.6z M23.8,17
	l1.2-1.1V17H23.8z"/>
</svg>
