<svg xmlns="http://www.w3.org/2000/svg" viewBox="0 0 110 110">
    <defs>
        <style>.cls-1{fill:none;}.cls-2{fill:#7F8488;}.cls-3{fill:#e2001a;fill-rule:evenodd;}</style>
    </defs>
    <g id="Ebene_1" data-name="Ebene 1">
        <path class="cls-1" d="M55,36.08A12.94,12.94,0,1,0,67.93,49,12.95,12.95,0,0,0,55,36.08Zm0,25.05A12.12,12.12,0,1,1,67.12,49,12.13,12.13,0,0,1,55,61.13Z"/>
        <path class="cls-1" d="M31,55.68a5.21,5.21,0,1,0,5.21,5.21A5.21,5.21,0,0,0,31,55.68Zm0,9.6a4.4,4.4,0,1,1,4.39-4.39A4.4,4.4,0,0,1,31,65.28Z"/>
        <path class="cls-1" d="M86.73,85A4.74,4.74,0,0,1,82,89.7H28A4.74,4.74,0,0,1,23.21,85V75.47H48.09a1.19,1.19,0,0,0,1.12.79h3.84a2.26,2.26,0,0,0,3.84,0h3.84a1.19,1.19,0,0,0,1.12-.79H86.73Zm0-10.3H61.85a1.19,1.19,0,0,0-1.12-.79H56.89a2.26,2.26,0,0,0-3.84,0H49.21a1.19,1.19,0,0,0-1.12.79H23.21V25A4.74,4.74,0,0,1,28,20.3H82A4.74,4.74,0,0,1,86.73,25Z"/>
        <path class="cls-2" d="M55,36.9A12.12,12.12,0,1,0,67.12,49,12.13,12.13,0,0,0,55,36.9Z"/>
        <path class="cls-2" d="M60.73,76.26H56.89a2.26,2.26,0,0,1-3.84,0H49.21a1.19,1.19,0,0,1-1.12-.79H23.21V85A4.74,4.74,0,0,0,28,89.7H82A4.74,4.74,0,0,0,86.73,85V75.47H61.85A1.19,1.19,0,0,1,60.73,76.26Z"/>
        <path class="cls-2" d="M89.35,10H20.65a7,7,0,0,0-7,7V93a7,7,0,0,0,7,7h68.7a7,7,0,0,0,7-7V17A7,7,0,0,0,89.35,10ZM89,85.55a6.51,6.51,0,0,1-6.5,6.5H27.42a6.51,6.51,0,0,1-6.5-6.5V24.45a6.51,6.51,0,0,1,6.5-6.5h55.1a6.51,6.51,0,0,1,6.5,6.5Z"/>
        <path class="cls-2" d="M82,20.3H28A4.74,4.74,0,0,0,23.21,25V74.66H48.09a1.19,1.19,0,0,1,1.12-.79h3.84a2.26,2.26,0,0,1,3.84,0h3.84a1.19,1.19,0,0,1,1.12.79H86.73V25A4.74,4.74,0,0,0,82,20.3ZM33.53,67.6a5.21,5.21,0,1,1,5.21-5.21A5.22,5.22,0,0,1,33.53,67.6Zm21.47-5A13.6,13.6,0,1,1,68.6,49,13.61,13.61,0,0,1,55,62.61Z"/>
        <path class="cls-3" d="M54.92,85.38c-4.84,0-8.77-1.09-8.77-2.43s3.93-2.44,8.77-2.44S63.7,81.6,63.7,83,59.77,85.38,54.92,85.38Z"/>
    </g>
</svg>