<?xml version="1.0" encoding="utf-8"?>
<!-- Generator: Adobe Illustrator 19.2.1, SVG Export Plug-In . SVG Version: 6.00 Build 0)  -->
<svg version="1.1" id="ebcbb437-3461-4a7a-b237-35bc851c5de8"
	 xmlns="http://www.w3.org/2000/svg" xmlns:xlink="http://www.w3.org/1999/xlink" x="0px" y="0px" viewBox="0 0 40 40"
	 style="enable-background:new 0 0 40 40;" xml:space="preserve">
	 <style type="text/css">
	.st0{fill:#8797b4;}
</style>
<title>icon-sw-4quadranten-produktion-02</title>
<g>
	<path class="st0" d="M20.2,4.7V7c0,0.4-0.3,0.7-0.7,0.7l0,0c-0.4,0-0.7-0.3-0.7-0.7V4.7c0-0.4,0.3-0.7,0.7-0.7l0,0C19.9,4,20.2,4.3,20.2,4.7z"
		/>
	<path class="st0" d="M26.1,6.4l-1.2,1.9c-0.2,0.3-0.6,0.4-0.9,0.2l0,0c-0.3-0.2-0.4-0.6-0.2-0.9L25,5.7c0.2-0.3,0.6-0.4,0.9-0.2l0,0
		C26.2,5.7,26.3,6.1,26.1,6.4z"/>
	<path class="st0" d="M29.9,11.1l-2.2,0.7c-0.4,0.1-0.7-0.1-0.9-0.4v0c-0.1-0.4,0.1-0.7,0.4-0.9l2.2-0.7c0.4-0.1,0.7,0.1,0.9,0.4v0
		C30.5,10.6,30.3,11,29.9,11.1z"/>
	<path class="st0" d="M9.9,9.8l2.2,0.7c0.4,0.1,0.6,0.5,0.4,0.9v0c-0.1,0.4-0.5,0.6-0.9,0.4l-2.2-0.7C9.2,11,9,10.7,9.1,10.3l0,0
		C9.2,9.9,9.6,9.7,9.9,9.8z"/>
	<path class="st0" d="M14.3,5.8l1.3,1.9c0.2,0.3,0.1,0.7-0.2,0.9l0,0c-0.3,0.2-0.7,0.1-0.9-0.2l-1.3-1.9C13,6.2,13,5.8,13.4,5.6v0
		C13.7,5.4,14.1,5.5,14.3,5.8z"/>
	<path class="st0" d="M26.2,14c-1.2-2.6-3.7-4.3-6.6-4.3c-2.9,0-5.4,1.7-6.6,4.3H26.2z"/>
	<path class="st0" d="M30,16l1.7,13H8l1.8-13H30 M30.9,15h-22l-2,15h26L30.9,15L30.9,15L30.9,15z"/>
	<rect class="st0" x="16.9" y="25" width="6" height="3"/>
	<polygon class="st0" points="29.5,25 23.9,25 23.9,28 29.9,28 	"/>
	<polygon class="st0" points="9.9,28 15.9,28 15.9,25 10.3,25 	"/>
	<rect class="st0" x="16.9" y="21" width="6" height="3"/>
	<polygon class="st0" points="28.9,21 23.9,21 23.9,24 29.3,24 	"/>
	<polygon class="st0" points="10.5,24 15.9,24 15.9,21 10.9,21 	"/>
	<rect class="st0" x="16.9" y="17" width="6" height="3"/>
	<polygon class="st0" points="28.4,17 23.9,17 23.9,20 28.8,20 	"/>
	<polygon class="st0" points="11,20 15.9,20 15.9,17 11.4,17 	"/>
</g>
</svg>
