<?xml version="1.0" encoding="utf-8"?>
<!-- Generator: Adobe Illustrator 19.2.1, SVG Export Plug-In . SVG Version: 6.00 Build 0)  -->
<svg version="1.1" id="_x30_9b8a8d1-f8fb-4e99-96e9-0ed0fcb9f6ed"
	 xmlns="http://www.w3.org/2000/svg" xmlns:xlink="http://www.w3.org/1999/xlink" x="0px" y="0px" viewBox="0 0 32 32"
	 style="enable-background:new 0 0 32 32;" xml:space="preserve">
<style type="text/css">
	.st0{fill:#fead00;}
</style>
<title>icon-battery-charge-01</title>
<g>
	<path class="st0" d="M20.8,5h-2.4V4.2c0-0.6-0.4-1-1-1h-2.9c-0.6,0-1,0.4-1,1V5h-2.4C10,5,9,5.9,9,7.1v19.6c0,1.2,1,2.2,2.2,2.2
		h9.7c1.2,0,2.2-1,2.2-2.2V7.1C23,5.9,22,5,20.8,5z M21.8,26.7L21.8,26.7c0,0.6-0.4,1.1-1,1.1h-9.7c-0.6,0-1-0.4-1-1V7.1
		c0-0.6,0.4-1,1-1c0,0,0,0,0.1,0h9.7c0.6,0,1,0.4,1,1V26.7z"/>
	<path class="st0" d="M20.2,22C20.2,22,20.2,22,20.2,22H16l-1.4,2.8L15,22h-3.2c-0.5,0-0.9,0.4-0.9,0.9c0,0,0,0,0,0v3.2
		c0,0.5,0.4,0.9,0.9,0.9c0,0,0,0,0,0h8.5c0.5,0,0.9-0.4,0.9-0.9c0,0,0,0,0,0v-3.2C21.1,22.4,20.7,22,20.2,22z"/>
	<polygon class="st0" points="15,22 16,22 18.8,16.5 16.2,15.4 17.5,8.5 13.2,16.9 15.8,17.9 	"/>
</g>
</svg>
